<?xml version="1.0" encoding="iso-8859-1"?>
<!-- Generator: Adobe Illustrator 19.1.0, SVG Export Plug-In . SVG Version: 6.00 Build 0)  -->
<svg xmlns="http://www.w3.org/2000/svg" xmlns:xlink="http://www.w3.org/1999/xlink" version="1.1" id="Capa_1" x="0px" y="0px" viewBox="0 0 509.889 509.889" style="enable-background:new 0 0 509.889 509.889;" xml:space="preserve" width="512px" height="512px">
<g>
	<g>
		<path d="M254.944,509.889c-140.032,0-254.41-114.378-254.41-254.41S114.912,0,254.944,0    s254.41,114.378,254.41,254.41S396.046,509.889,254.944,509.889z M254.944,32.068c-122.929,0-222.342,99.412-222.342,222.342    s99.412,222.342,222.342,222.342s222.342-99.412,222.342-222.342S377.874,32.069,254.944,32.068z" fill="#FFFFFF"/>
		<path d="M303.047,366.65c-4.276,0-8.552-1.069-11.758-4.276l-95.137-95.137    c-3.207-4.276-5.345-8.552-5.345-12.827c0-4.276,2.138-8.552,4.276-11.758l95.137-95.137c6.414-6.414,16.034-6.414,22.448,0    c6.414,6.414,6.414,16.034,0,22.448l-84.447,84.447l84.447,84.447c6.414,6.414,6.414,16.034,0,22.448    C310.53,364.512,307.323,366.65,303.047,366.65z" fill="#FFFFFF"/>
	</g>
</g>
<g>
</g>
<g>
</g>
<g>
</g>
<g>
</g>
<g>
</g>
<g>
</g>
<g>
</g>
<g>
</g>
<g>
</g>
<g>
</g>
<g>
</g>
<g>
</g>
<g>
</g>
<g>
</g>
<g>
</g>
</svg>
